<?xml version="1.0" encoding="UTF-8"?>
<svg width="16px" height="16px" viewBox="0 0 16 16" version="1.1" xmlns="http://www.w3.org/2000/svg" xmlns:xlink="http://www.w3.org/1999/xlink">
    <title>keyboard/return</title>
    <g id="Symbols" stroke="none" stroke-width="1" fill="none" fill-rule="evenodd">
        <g id="Components/Form/Tag/Select-Create" transform="translate(-165.000000, -221.000000)">
            <g id="Components/Tag/Custom/Box/Default" transform="translate(1.000000, 1.000000)">
                <g id="Button" transform="translate(0.000000, 206.000000)">
                    <g id="Icon-Return" transform="translate(164.000000, 14.000000)">
                        <rect id="Background" fill="#8592A6" opacity="0.400000006" x="0" y="0" width="16" height="16" rx="3"></rect>
                        <path d="M12,6.28571429 C12,7.38095238 11.0284094,9.33333333 9.09090902,9.33333333 L6.48295478,9.33333333 L7.78693154,10.699405 C8.07102246,10.997024 8.07102246,11.4791665 7.78693154,11.7767855 C7.64488645,11.9255954 7.46022753,12 7.27272717,12 C7.08522752,12 6.90056788,11.9255954 6.75852279,11.7767855 L4.21306819,9.11011886 C3.92897727,8.81249981 3.92897727,8.33035733 4.21306819,8.03273829 L6.75852279,5.36607162 C7.04261371,5.06845257 7.50284063,5.06845257 7.78693154,5.36607162 C8.07102246,5.66369067 8.07102246,6.14583314 7.78693154,6.44345219 L6.48295478,7.80952381 L9.09090902,7.80952381 C10.1079549,7.80952381 10.5454545,6.6517859 10.5454545,6.28571429 L10.5454545,4.76190476 C10.5454545,4.3392861 10.8693185,4 11.2727273,4 C11.6761367,4 12,4.3392861 12,4.76190476 L12,6.28571429 Z" id="Icon-Fill" fill="#FFFFFF"></path>
                    </g>
                </g>
            </g>
        </g>
    </g>
</svg>