<svg fill="currentColor" preserveAspectRatio="xMidYMid meet" height="1em" width="1em" viewBox="0 0 16 16" style="vertical-align: baseline; color: rgb(133, 146, 166);"><g><path d="M9.999 0c.3 0 .5.2.5.5v1.9l.473.24c.23.12.446.24.626.36l1.6-1c.2-.1.5-.1.699.2l1.999 3.5c.2.3.1.6-.2.7l-1.6 1v1.2l1.6 1c.2.1.3.4.2.7l-1.999 3.5c-.1.2-.4.3-.7.2l-1.599-1c-.324.184-.693.377-1.1.6v1.9c0 .3-.2.5-.499.5H6.001c-.3 0-.5-.2-.5-.5v-1.9l-.473-.24c-.23-.12-.446-.24-.626-.36l-1.6 1c-.2.1-.5.1-.699-.2L.104 10.3c-.2-.3-.1-.6.2-.7l1.6-1V7.4l-1.6-1c-.3-.1-.4-.4-.2-.7l1.999-3.5c.1-.2.4-.3.7-.1l1.599 1c.399-.25.67-.379 1.1-.6v-2c0-.3.2-.5.499-.5h3.998zM8.998 1.5H7.001v1.915l-1.403.724-.2.112-.201.121-.796.497-1.544-.967-.978 1.714 1.524.953V9.43l-1.524.952 1.02 1.787 1.53-.956.805.538.157.098c.088.052.195.11.338.184l.443.224.83.415L7 14.5h1.997v-1.787l1.858-1.017.778-.443 1.466.917 1.02-1.787-1.523-.952V6.57l1.523-.953-1.02-1.787-1.528.957-.806-.538-.176-.108-.11-.062-.548-.284L9 3.327 8.998 1.5zM8 5a3 3 0 110 6 3 3 0 010-6zm0 1.5a1.5 1.5 0 100 3 1.5 1.5 0 000-3z" fill-rule="evenodd"></path></g></svg>