<?xml version="1.0" encoding="UTF-8"?>
<svg width="12px" height="12px" viewBox="0 0 12 12" version="1.1" xmlns="http://www.w3.org/2000/svg" xmlns:xlink="http://www.w3.org/1999/xlink">
    <title>Common Icons/12px/Drag Handle</title>
    <g id="Common-Icons/12px/Drag-Handle" stroke="none" stroke-width="1" fill="none" fill-rule="evenodd">
        <g id="Common-Icons/12px/Drag-Handle" fill="#8592A6">
            <path d="M4,9 C4.55228475,9 5,9.44771525 5,10 C5,10.5522847 4.55228475,11 4,11 C3.44771525,11 3,10.5522847 3,10 C3,9.44771525 3.44771525,9 4,9 Z M8,9 C8.55228475,9 9,9.44771525 9,10 C9,10.5522847 8.55228475,11 8,11 C7.44771525,11 7,10.5522847 7,10 C7,9.44771525 7.44771525,9 8,9 Z M4,5 C4.55228475,5 5,5.44771525 5,6 C5,6.55228475 4.55228475,7 4,7 C3.44771525,7 3,6.55228475 3,6 C3,5.44771525 3.44771525,5 4,5 Z M8,5 C8.55228475,5 9,5.44771525 9,6 C9,6.55228475 8.55228475,7 8,7 C7.44771525,7 7,6.55228475 7,6 C7,5.44771525 7.44771525,5 8,5 Z M4,1 C4.55228475,1 5,1.44771525 5,2 C5,2.55228475 4.55228475,3 4,3 C3.44771525,3 3,2.55228475 3,2 C3,1.44771525 3.44771525,1 4,1 Z M8,1 C8.55228475,1 9,1.44771525 9,2 C9,2.55228475 8.55228475,3 8,3 C7.44771525,3 7,2.55228475 7,2 C7,1.44771525 7.44771525,1 8,1 Z" id="drag-handle"></path>
        </g>
    </g>
</svg>