<svg width="87" height="87" viewBox="0 0 87 87" fill="none" xmlns="http://www.w3.org/2000/svg">
    <path
        d="M68.305 0.5C78.2323 0.5 86.28 8.54768 86.28 18.475V68.805C86.28 78.7323 78.2323 86.78 68.305 86.78H17.975C8.04768 86.78 0 78.7323 0 68.805V18.475C0 8.54768 8.04768 0.5 17.975 0.5H68.305ZM79.09 29.26H7.19V68.805C7.19 74.7614 12.0186 79.59 17.975 79.59H68.305C74.2614 79.59 79.09 74.7614 79.09 68.805V29.26ZM68.305 7.69H17.975C12.0186 7.69 7.19 12.5186 7.19 18.475V22.07H79.09V18.475C79.09 12.5186 74.2614 7.69 68.305 7.69Z"
        fill="currentColor" />
</svg>