<svg fill="currentColor" preserveAspectRatio="xMidYMid meet" height="1em" width="1em" viewBox="0 0 16 16" style="vertical-align: baseline;"><g><path d="M10.5 2.5h-5V4H4V2a1 1 0 011-1h6a1 1 0 011 1v2h2.5a.5.5 0 01.5.5V5a.5.5 0 01-.5.5h-1V14a1 1 0 01-1 1h-9a1 1 0 01-1-1V5.5h-1A.5.5 0 011 5v-.5a.5.5 0 01.5-.5h9V2.5zm1.5 3H4v8h8v-8zM6.75 7.25a.5.5 0 01.5.5v3.5a.5.5 0 01-.5.5h-.5a.5.5 0 01-.5-.5v-3.5a.5.5 0 01.5-.5h.5zm3 0a.5.5 0 01.5.5v3.5a.5.5 0 01-.5.5h-.5a.5.5 0 01-.5-.5v-3.5a.5.5 0 01.5-.5h.5z" fill-rule="evenodd"></path></g></svg>